#!OML:ASF X:\für Bonn\!DataBase\2005_08_11_Bastian_Final\c3d\Bastian.ASF
:FULLY-SPECIFIED
:DEGREES
64
root -6.90098 16.5098 4.39306 540.558 36.7686 -170.326
lowerback 13.7566 0.600595 -1.65151
upperback 15.4083 3.12958 -0.844165
thorax 8.9189 2.42543 -0.015257
lowerneck -12.5439 -14.905 -27.2844
upperneck -3.58614 -17.9642 36.5013
head 8.02824 -7.41689 15.0294
rclavicle -2.70347e-014 2.70347e-014
rhumerus -12.7709 15.9811 -84.6982
rradius 58.5082
rwrist 8.33522
rhand -13.7681 4.62372
rfingers 7.12502
rthumb 12.3527 -24.9914
lclavicle -2.70347e-014 2.70347e-014
lhumerus -34.3303 -12.6726 -267.18
lradius 13.9005
lwrist -342.512
lhand -12.1453 -7.28901
lfingers 7.12502
lthumb 13.917 22.2253
rfemur 16.6147 -6.31055 31.2203
rtibia 32.9795
rfoot -23.3444 0.912442
rtoes -16.5888
lfemur -37.0621 -2.8177 -8.10914
ltibia 43.161
lfoot 8.83503 -11.9396
ltoes -30.5202
65
root -6.84256 16.5065 4.29345 540.826 36.7414 -170.395
lowerback 13.9715 0.636309 -1.89891
upperback 15.3945 3.1643 -0.88847
thorax 8.78049 2.42562 0.061161
lowerneck -12.6255 -14.9727 -27.1577
upperneck -3.78339 -18.0144 36.5846
head 8.00409 -7.42842 15.0137
rclavicle -6.36111e-015 4.29375e-014
rhumerus -12.1772 15.89 -84.5752
rradius 58.3384
rwrist 8.44271
rhand -13.5732 4.73435
rfingers 7.12502
rthumb 12.5406 -24.8693
lclavicle -6.36111e-015 4.29375e-014
lhumerus -34.4076 -12.6932 -267.125
lradius 13.9966
lwrist -342.108
lhand -12.1981 -7.37987
lfingers 7.12502
lthumb 13.8661 22.1379
rfemur 16.5569 -6.28107 31.083
rtibia 33.2358
rfoot -23.0927 1.00721
rtoes -17.2655
lfemur -37.0646 -2.42345 -8.37395
ltibia 43.5308
lfoot 7.91893 -12.1189
ltoes -29.4313
66
root -6.78491 16.5061 4.19266 541.13 36.7338 -170.439
lowerback 14.124 0.670774 -2.03761
upperback 15.4066 3.21533 -0.974959
thorax 8.71358 2.44905 0.0356824
lowerneck -12.6476 -15.0395 -27.0084
upperneck -4.05295 -18.0651 36.7118
head 7.95448 -7.4454 15.0127
rclavicle 7.95139e-015 7.95139e-015
rhumerus -11.4874 15.8117 -84.4804
rradius 58.1169
rwrist 8.54989
rhand -13.4421 4.8214
rfingers 7.12502
rthumb 12.667 -24.7745
lclavicle 7.95139e-015 7.95139e-015
lhumerus -34.4151 -12.9069 -267.081
lradius 14.0272
lwrist -341.625
lhand -12.2773 -7.54599
lfingers 7.12502
lthumb 13.7898 21.977
rfemur 16.4431 -6.16576 31.0083
rtibia 33.5318
rfoot -22.7733 1.02634
rtoes -18.0145
lfemur -37.0557 -2.07143 -8.59478
ltibia 43.8575
lfoot 7.02353 -12.2449
ltoes -28.2868
67
root -6.72879 16.5076 4.09186 541.427 36.7214 -170.479
lowerback 14.2854 0.696878 -2.13168
upperback 15.4198 3.2585 -1.05866
thorax 8.64455 2.47326 -0.0116245
lowerneck -12.5648 -15.0917 -26.9959
upperneck -4.37708 -18.0975 36.9307
head 7.89741 -7.46537 15.0905
rclavicle -2.70347e-014 -1.90833e-014
rhumerus -10.8704 15.7455 -84.3919
rradius 57.975
rwrist 8.73705
rhand -13.3823 4.88129
rfingers 7.12502
rthumb 12.7247 -24.711
lclavicle -2.70347e-014 -1.90833e-014
lhumerus -34.3694 -13.1603 -267.012
lradius 13.9761
lwrist -341.176
lhand -12.3119 -7.71528
lfingers 7.12502
lthumb 13.7564 21.81
rfemur 16.3028 -6.04534 30.9413
rtibia 33.8778
rfoot -22.406 1.04097
rtoes -18.6376
lfemur -37.0295 -1.76678 -8.79415
ltibia 44.1489
lfoot 6.23168 -12.3108
ltoes -26.7079
68
root -6.67333 16.5124 3.99067 541.7 36.7319 -170.578
lowerback 14.3805 0.715322 -2.24259
upperback 15.4594 3.29815 -1.16363
thorax 8.64403 2.49603 -0.0673851
lowerneck -12.4269 -15.126 -27.0077
upperneck -4.75717 -18.0992 37.1765
head 7.81247 -7.47762 15.1951
rclavicle 1.82882e-014 -1.90833e-014
rhumerus -10.2192 15.7649 -84.2975
rradius 57.8083
rwrist 8.93302
rhand -13.4285 4.89205
rfingers 7.12502
rthumb 12.6802 -24.703
lclavicle 1.82882e-014 -1.90833e-014
lhumerus -34.2902 -13.6995 -266.815
lradius 13.8749
lwrist -340.519
lhand -12.3761 -7.84047
lfingers 7.12502
lthumb 13.6946 21.6889
rfemur 16.1071 -5.89193 30.8316
rtibia 34.2783
rfoot -22.0132 1.04921
rtoes -19.1169
lfemur -36.986 -1.51053 -9.03385
ltibia 44.4144
lfoot 5.3981 -12.3201
ltoes -25.5384
